<?xml version="1.0" encoding="UTF-8"?>
<svg id="Capa_1" data-name="Capa 1" xmlns="http://www.w3.org/2000/svg" viewBox="0 0 662.44 663.592">
  <g id="x13BZA.tif">
    <g>
      <path d="M462.654,508.218v-118.849c0-.201,1.789-2.045,2.337-2.301,2.292-1.072,33.322-1.168,37.733-.663,4.828.553,4.839,3.401,5.207,7.548,1.778,20.063-2.455,44.322-.12,63.893.57,4.778,3.246,4.818,7.548,5.206,30.614,2.764,65.296-2.225,96.356.006,3.175-.03,6.597-3.028,6.32-6.304-.091-1.072-1.162-2.067-1.162-2.453v-174.505l-230.62-2.442c-.477-38.408.179-76.87-.079-115.296-.211-31.499-2.005-63.363-1.255-95.079.114-4.838,3.193-13.117.134-17.43l-5.371-2.746-171.599-.123-8.064,3.531-.003,102.044c1.072,1.932,2.615,2.112,4.59,2.367,19.289,2.486,43.946-1.875,63.882-.108,4.147.368,6.995.378,7.548,5.206.688,6.011.799,32.843-.575,37.852-.919,3.35-3.937,3.167-6.978,3.424-28.406,2.4-78.135,2.066-106.776.001-1.93-.139-3.819-.253-5.586-1.106l-1.946-7.6.071-186.693c.825-4.353,6.038-5.048,9.784-5.29l495.728.642c.548.257,2.337,2.101,2.337,2.301v504.384l-1.739,1.739h-193.642c-.624,0-2.579-1.792-4.058-1.16ZM618.137,46.681l-186.844-.011-.011,185.652,186.844.011.011-185.652Z" fill="#4e211a"/>
      <path d="M77.977,1.795C80.232-.132,110.587-.23,115.4.329c3.049.354,5.917,1.343,7.286,4.309l.165,221.301,4.364,6.072,177.749-.329,2.367-4.59-.628-101.515-4.59-2.367-69.059-.513c-1.725-1.556-2.079-3.613-2.326-5.79-1.298-11.422.871-25.273.169-36.976.883-2.58,8.216-2.907,10.816-3.099,28.098-2.073,76.493-2.267,104.455.006,2.837.231,5.773.513,8.115,2.32l-1.091,198.431-275.614-.58.4-275.215Z" fill="#4e211a"/>
      <path d="M584.136,310.213c.912,2.302,1.272,4.754,1.474,7.227,2.361,28.887,2.13,78.874.005,107.923-.141,1.929-.152,5.432-2.086,6.312-3.93,1.789-36.636,1.941-40.566.294-1.241-.52-2.399-1.509-3.203-2.595-2.873-21.62,1.855-46.628-.557-67.854-.247-2.177-.601-4.235-2.326-5.79l-100.366-.62-4.59,2.367-.316,178.89,2.047,3.75,225.309.8c1.036.305,2.086,1.109,2.558,2.08.995,2.047,1.148,34.653.628,38.902-.157,1.28-.175,2.514-1.101,3.537l-273.774-.1-.581-274.248,6.916-2.36c59.536,3.165,123.091-4.019,182.151,0,2.876.196,5.702.348,8.378,1.483Z" fill="#4e211a"/>
      <path d="M355.977,618.371h304.958c-.377,1.138,1.16,2.515,1.16,2.899v40.583l-1.739,1.739h-350.179c-.201,0-2.045-1.788-2.302-2.337l-.642-266.134,2.32-8.115c1.72-1.135,37.698-1.23,41.222-.551,3.047.587,3.04,2.877,3.757,5.519l.229,220.075,1.217,6.322Z" fill="#4e211a"/>
      <path d="M0,3.255c.108-.386,1.803-2.052,2.337-2.301C4.52-.068,34.803-.237,38.905.296c3.25.422,5.451,2.007,6.287,5.308l-.042,295.715c-.317,3.088,1.125,5.233,3.577,6.859l221.994.636c3.301.836,4.886,3.037,5.308,6.287.519,3.995.338,36.124-.641,37.743-.744.592-2.919,2.32-3.477,2.32H1.739l-1.739-1.739V3.255Z" fill="#4e211a"/>
      <path d="M353.417,353.75c-1.988,2.773-37.918,1.203-43.888.901-3.034-2.134-2.655-29.753-2.301-34.902.195-2.843.215-7.115,2.386-9.209,3.921-3.782,35.701-1.17,42.952-1.244,3.725,2.619,2.619,38.218.851,44.454Z" fill="#4e211a"/>
      <path d="M585.374,79.973c-1.142,13.915,2.813,115.633-1.519,119.847-1.014.987-2.062,1.248-3.442,1.196-35.428-2.652-75.422,3.292-110.293.006-2.598-.245-3.949-.068-5.827-2.29-4.745-5.614-.167-104.768-1.102-119.573,2.343-1.808,5.278-2.09,8.115-2.32,34.238-2.782,72.14,2.216,106.777-.009l7.292,3.144ZM499.759,115.726v46.96l50.276.066c2.392-1.386,2.439-37.115,1.899-42.383-.754-7.355-2.789-8.166-9.807-8.745-6.584-.543-34.714-.805-39.205,1.468-.907.459-2.937,1.855-3.163,2.635Z" fill="#4e211a"/>
    </g>
  </g>
</svg>