<?xml version="1.0" encoding="UTF-8"?>
<svg id="Capa_1" xmlns="http://www.w3.org/2000/svg" version="1.1" viewBox="0 0 663.59 662.44">
  <!-- Generator: Adobe Illustrator 29.4.0, SVG Export Plug-In . SVG Version: 2.1.0 Build 152)  -->
  <defs>
    <style>
      .st0 {
        fill: #4e211a;
      }
    </style>
  </defs>
  <g id="x13BZA.tif">
    <g>
      <path class="st0" d="M508.22,199.79h-118.85c-.2,0-2.05-1.79-2.3-2.34-1.07-2.29-1.17-33.32-.66-37.73.55-4.83,3.4-4.84,7.55-5.21,20.06-1.78,44.32,2.46,63.89.12,4.78-.57,4.82-3.25,5.21-7.55,2.76-30.61-2.23-65.3,0-96.36-.03-3.17-3.03-6.6-6.3-6.32-1.07.09-2.07,1.16-2.45,1.16h-174.51l-2.44,230.62c-38.41.48-76.87-.18-115.3.08-31.5.21-63.36,2.01-95.08,1.26-4.84-.11-13.12-3.19-17.43-.13l-2.75,5.37-.12,171.6,3.53,8.06h102.04c1.93-1.07,2.11-2.61,2.37-4.59,2.49-19.29-1.88-43.95-.11-63.88.37-4.15.38-6.99,5.21-7.55,6.01-.69,32.84-.8,37.85.58,3.35.92,3.17,3.94,3.42,6.98,2.4,28.41,2.07,78.14,0,106.78-.14,1.93-.25,3.82-1.11,5.59l-7.6,1.95-186.69-.07c-4.35-.83-5.05-6.04-5.29-9.78L.95,2.68C1.21,2.13,3.05.35,3.26.35h504.38l1.74,1.74v193.64c0,.62-1.79,2.58-1.16,4.06h0ZM46.68,44.3v186.84s185.64.01,185.64.01V44.31s-185.64-.01-185.64-.01Z"/>
      <path class="st0" d="M1.79,584.46c-1.93-2.26-2.03-32.61-1.47-37.42.35-3.05,1.34-5.92,4.31-7.29l221.3-.16,6.07-4.36-.33-177.75-4.59-2.37-101.51.63-2.37,4.59-.51,69.06c-1.56,1.73-3.61,2.08-5.79,2.33-11.42,1.3-25.27-.87-36.98-.17-2.58-.88-2.91-8.22-3.1-10.82-2.07-28.1-2.27-76.49,0-104.46.23-2.84.51-5.77,2.32-8.11l198.43,1.09-.58,275.61-275.21-.4h0Z"/>
      <path class="st0" d="M310.21,78.3c2.3-.91,4.75-1.27,7.23-1.47,28.89-2.36,78.87-2.13,107.92,0,1.93.14,5.43.15,6.31,2.09,1.79,3.93,1.94,36.64.29,40.57-.52,1.24-1.51,2.4-2.6,3.2-21.62,2.87-46.63-1.86-67.85.56-2.18.25-4.23.6-5.79,2.33l-.62,100.37,2.37,4.59,178.89.32,3.75-2.05.8-225.31c.3-1.04,1.11-2.09,2.08-2.56,2.05-1,34.65-1.15,38.9-.63,1.28.16,2.51.18,3.54,1.1l-.1,273.77-274.25.58-2.36-6.92c3.17-59.54-4.02-123.09,0-182.15.2-2.88.35-5.7,1.48-8.38h0Z"/>
      <path class="st0" d="M618.37,306.46V1.51c1.14.38,2.52-1.16,2.9-1.16h40.58l1.74,1.74v350.18c0,.2-1.79,2.05-2.34,2.3l-266.13.64-8.11-2.32c-1.14-1.72-1.23-37.7-.55-41.22.59-3.05,2.88-3.04,5.52-3.76l220.07-.23,6.32-1.22h0Z"/>
      <path class="st0" d="M3.26,662.44c-.39-.11-2.05-1.8-2.3-2.34-1.02-2.18-1.19-32.47-.66-36.57.42-3.25,2.01-5.45,5.31-6.29l295.72.04c3.09.32,5.23-1.12,6.86-3.58l.64-221.99c.84-3.3,3.04-4.89,6.29-5.31,3.99-.52,36.12-.34,37.74.64.59.74,2.32,2.92,2.32,3.48v270.17l-1.74,1.74H3.26Z"/>
      <path class="st0" d="M353.75,309.02c2.77,1.99,1.2,37.92.9,43.89-2.13,3.03-29.75,2.65-34.9,2.3-2.84-.2-7.11-.21-9.21-2.39-3.78-3.92-1.17-35.7-1.24-42.95,2.62-3.73,38.22-2.62,44.45-.85Z"/>
      <path class="st0" d="M79.97,77.07c13.92,1.14,115.63-2.81,119.85,1.52.99,1.01,1.25,2.06,1.2,3.44-2.65,35.43,3.29,75.42,0,110.29-.24,2.6-.07,3.95-2.29,5.83-5.61,4.74-104.77.17-119.57,1.1-1.81-2.34-2.09-5.28-2.32-8.12-2.78-34.24,2.22-72.14,0-106.78l3.14-7.29h0ZM115.73,162.68h46.96l.07-50.28c-1.39-2.39-37.12-2.44-42.38-1.9-7.36.75-8.17,2.79-8.75,9.81-.54,6.58-.81,34.71,1.47,39.21.46.91,1.86,2.94,2.64,3.16h0Z"/>
    </g>
  </g>
</svg>