<?xml version="1.0" encoding="UTF-8"?>
<svg id="Capa_1" xmlns="http://www.w3.org/2000/svg" version="1.1" viewBox="0 0 986.69 462.66">
  <!-- Generator: Adobe Illustrator 29.4.0, SVG Export Plug-In . SVG Version: 2.1.0 Build 152)  -->
  <defs>
    <style>
      .st0 {
        fill: #fff;
      }
    </style>
  </defs>
  <g>
    <g>
      <path class="st0" d="M555.88,255.13c-4.15-.41-8.22-1.49-12.37-1.91-4.81,2.24-10.79,2.99-15.69,2.24-4.07-2.24-.33-5.23,2.24-5.56,2.99-.41,6.72-.75,10.46-.41,1.91-1.82,2.66-5.23,2.99-10.04,1.16-5.98,1.49-13.45,1.91-21.33-8.63,3.74-18.34,3.4-28.05,1.91-71.71,89.22-156.44,174.78-274.46,188.97-41.08,4.81-87.06,2.99-122.5-21.66-40.33-26.56-46.72-79.17-7.14-109.8,1.16-1.16,2.24.75,1.49,1.49-51.12,45.89-4.07,100.84,47.47,117.27,78.43,27.64,166.15-5.23,230.39-53.45,45.98-35.11,84.07-78.43,119.92-123.24-6.39-1.08-12.36-2.24-18.34-2.57-21.25-2.99-33.94.75-49.3,15.27-7.47,1.49-2.99-7.47.75-9.71,13.45-11.2,32.86-11.2,48.97-8.96,6.31.75,13.44,1.91,20.17,2.99,14.19-17.51,27.97-35.44,42.16-53.36,2.66-3.74,5.98-7.14,10.12-9.71,1.08-.41,2.24.75,1.49,1.49-6.39,13.45-6.72,27.22-8.63,41.83-2.57,17.51,0,38.84-12.28,53.03,13.78.75,27.64,1.49,33.2-13.11,0-1.08,1.91-1.08,1.91,0,1.08,13.86-15.69,19.84-26.89,18.34h0ZM519.61,217.37c9.38,1.16,18.34.75,26.14-3.32.41-11.95,1.16-25.06,4.48-35.85-10.04,12.7-20.17,26.14-30.62,39.17h0Z"/>
      <path class="st0" d="M605.93,196.13c.08,1.24-.08,2.57-.25,3.9l2.16-2.82c12.45-15.6,21.83-6.31,21.25-1.08-.75,8.96-10.46,8.96-11.2,4.48-1.08-4.48-6.22-7.39-17.93,14.52-1.74,3.24-3.07,6.23-3.73,8.22-2.24,6.72,0,9.38,4.07,6.72l1.49,1.49c-3.73,4.48-13.03,7.14-15.69,1.16-3.73-7.88,7.88-26.56,9.38-32.87,1.08-4.48-1.16-4.15-4.9-.75l-1.08-1.91c7.8-7.8,16.02-8.55,16.43-1.08h0Z"/>
      <path class="st0" d="M638.79,169.57l-1.08-1.83c5.98-6.39,17.18-7.14,16.77,1.83-.17,4.4-1.58,9.21-3.73,14.61h11.95l-1.08,3.73h-12.37c-2.82,6.56-6.39,13.78-9.71,21.66-4.81,11.54-5.98,15.27-5.23,17.93.75,2.24,2.99,3.74,11.62-3.4l1.49,1.91c-8.63,11.21-19.09,14.19-23.15,6.31-1.49-3.74-.41-9.71,1.83-15.27,2.66-7.55,7.97-19.25,12.12-29.13h-9.13l1.16-3.73h9.46c2.07-5.06,3.57-9.38,3.98-11.95.33-3.73-1.91-4.48-4.9-2.66h0Z"/>
      <path class="st0" d="M659.05,236.46c-9.71-4.15-10.12-16.43-5.23-26.89,5.23-10.87,14.94-16.43,20.91-18.34,12.28-4.07,21.25,3.74,13.78,14.19-5.4,7.55-17.84,12.12-26.39,14.27.75,4.57,2.99,8.3,6.22,9.63,5.98,2.24,14.19-1.08,19.09-6.72l1.83,2.24c-2.99,5.23-19.42,16.1-30.21,11.62h0ZM680.29,202.43c4.15-6.72,1.16-10.79-4.48-8.22-3.32,1.49-9.71,6.39-12.7,14.94-.83,2.41-1.24,4.9-1.24,7.3,7.88-2.99,14.44-7.22,18.42-14.03h0Z"/>
      <path class="st0" d="M716.23,235.13c-6.22,4.65-17.93,4.32-22.66.33-5.15-4.32-5.64-10.96-3.57-15.27,2.24-5.06,8.96-4.48,9.88-.75,1.08,4.32-1.66,6.56-1.83,9.46-.66,7.14,9.29,8.63,14.19,1.91,3.24-4.15,1.49-11.54-4.07-16.43-10.21-9.38-5.48-23.32,6.22-25.98,11.45-2.41,16.02,3.98,14.61,10.12-2.07,7.05-12.45,5.98-9.79-1.66,2.66-6.72-8.88-6.97-9.13.75-.17,4.65,2.66,8.22,7.22,11.7,8.55,6.56,8.05,19.09-1.08,25.81h0Z"/>
      <path class="st0" d="M757.57,232.73c-2.99-7.88,1.83-19.84,8.55-27.64,7.14-8.22,14.61-12.7,19.84-14.19,5.56-1.49,10.04-.41,10.79,2.24,7.14-16.85,10.71-25.98,11.29-29.96.5-3.74-1.74-4.48-4.73-2.66l-1.08-1.83c5.98-6.39,16.43-7.47,16.93,1.49.58,11.45-9.71,24.73-16.77,46.39-2.66,7.47-4.48,14.19-3.73,19.42.33,3.74,4.07,4.81,8.96-2.24l1.49,1.83c-4.9,11.21-14.61,12.37-18.34,7.88-3.32-3.73-2.57-10.87-1.49-17.93-.66.83-1.24,1.74-1.91,2.66-3.65,4.81-7.8,10.12-11.87,14.52-7.47,8.22-15.69,5.98-17.93,0h0ZM794.17,197.95c1.08-7.47-11.62-5.56-23.16,15.69-7.88,14.19-1.49,17.6,3.32,13.45,3.73-2.57,10.13-11.2,14.19-16.76,1.49-2.24,4.9-7.14,5.64-12.37h0Z"/>
      <path class="st0" d="M819.98,236.46c-9.71-4.15-10.12-16.43-5.23-26.89,5.23-10.87,14.94-16.43,20.91-18.34,12.28-4.07,21.25,3.74,13.78,14.19-5.4,7.55-17.84,12.12-26.39,14.27.75,4.57,2.99,8.3,6.22,9.63,5.98,2.24,14.19-1.08,19.09-6.72l1.83,2.24c-2.99,5.23-19.42,16.1-30.21,11.62h0ZM841.23,202.43c4.15-6.72,1.16-10.79-4.48-8.22-3.32,1.49-9.71,6.39-12.7,14.94-.83,2.41-1.24,4.9-1.24,7.3,7.88-2.99,14.44-7.22,18.42-14.03h0Z"/>
      <path class="st0" d="M546.91,256.89c13.44-4.48,31.29-4.4,38.92,9.3,13.28,23.9-1.33,62.41-25.89,78.43-9.96,6.47-21.91,11.12-32.45,10.12-34.86-3.07-34.52-61.08-.08-87.23,5.73-4.23,12.86-9.05,19.5-10.62ZM556.21,342.78c9.54-6.14,16.27-16.6,19.42-26.56,6.14-19.17,9.71-53.03-16.43-57.1-2.99-.42-5.56,0-8.22.33-7.47,1.91-13.69,6.39-18.67,11.62-17.84,18.51-26.97,67.23.41,75.27,9.21,2.74,17.35.42,23.49-3.57h0Z"/>
      <path class="st0" d="M596.22,332.66c-3.4-8.22,1.83-20.5,9.29-27.97,7.89-8.22,15.69-12.37,22.82-14.19,11.2-2.99,16.77,2.99,14.94,10.79-1.91,8.63-7.89,17.93-7.89,24.32,0,3.73,3.73,4.81,11.95-2.24l1.49,1.83c-8.22,11.2-18.26,13.86-22.41,7.47-1.83-2.99-1.83-8.55,1.16-16.76l-1.99,2.66c-3.48,4.65-6.97,9.38-11.12,13.78-7.47,8.22-16.02,5.98-18.26.33h0ZM633.15,297.55c1.16-6.72-12.7-5.23-23.9,14.94-7.8,14.19-.75,18.34,4.15,14.19,3.73-2.57,10.04-11.2,14.19-16.77,1.08-2.24,5.23-7.14,5.56-12.36h0Z"/>
      <path class="st0" d="M675.73,295.73c1.33,3.9,1.91,9.21,2.49,14.36,4.4-3.24,9.21-8.3,9.46-11.37.41-2.99-3.32-2.99-4.81-1.49l-1.49-1.91c9.71-8.22,18.67-5.98,16.77,1.49-1.74,6.97-11.62,12.61-19.42,17.51.66,5.15,1.58,9.63,3.4,11.62,3.32,3.73,7.47,2.99,12.7-1.49l1.49,1.91c-6.39,9.3-16.85,12.28-22.41,7.47-3.4-3.07-4.73-10.62-5.48-17.93-4.65,3.15-9.96,8.63-10.21,11.95-.41,2.99,3.32,2.99,4.81,1.49l1.49,1.83c-9.71,8.22-18.67,5.98-16.76-1.49,1.83-7.22,12.36-13.03,20.25-18.09-.41-5.39-.75-10.12-1.58-12.12-1.49-3.73-5.98-2.99-8.63-.75l-1.08-1.91c7.8-7.8,16.43-8.55,19.01-1.08h0Z"/>
      <path class="st0" d="M699.3,332.66c-3.4-8.22,1.83-20.5,9.29-27.97,7.89-8.22,15.69-12.37,22.82-14.19,11.2-2.99,16.77,2.99,14.94,10.79-1.91,8.63-7.89,17.93-7.89,24.32,0,3.73,3.73,4.81,11.95-2.24l1.49,1.83c-8.22,11.2-18.26,13.86-22.41,7.47-1.83-2.99-1.83-8.55,1.16-16.76l-1.99,2.66c-3.48,4.65-6.97,9.38-11.12,13.78-7.47,8.22-16.02,5.98-18.26.33h0ZM736.23,297.55c1.16-6.72-12.7-5.23-23.9,14.94-7.8,14.19-.75,18.34,4.15,14.19,3.73-2.57,10.04-11.2,14.19-16.77,1.08-2.24,5.23-7.14,5.56-12.36h0Z"/>
      <path class="st0" d="M763.54,336.06c-9.71-4.15-10.12-16.43-5.23-26.89,5.23-10.87,14.94-16.43,21.99-18.67,11.2-3.4,18.67,3.73,16.1,10.79-2.24,5.98-12.7,4.9-10.12-3.73,2.24-7.47-12.28-6.31-18.67,11.2-2.99,8.22-.33,17.93,5.23,20.17,5.98,2.24,14.19-1.08,19.09-6.72l1.83,2.24c-2.99,5.23-19.42,16.1-30.21,11.62h0Z"/>
      <path class="st0" d="M799.07,332.66c-3.4-8.22,1.83-20.5,9.29-27.97,7.89-8.22,15.69-12.37,22.82-14.19,11.2-2.99,16.77,2.99,14.94,10.79-1.91,8.63-7.89,17.93-7.89,24.32,0,3.73,3.73,4.81,11.95-2.24l1.49,1.83c-8.22,11.2-18.26,13.86-22.41,7.47-1.83-2.99-1.83-8.55,1.16-16.76l-1.99,2.66c-3.48,4.65-6.97,9.38-11.12,13.78-7.47,8.22-16.02,5.98-18.26.33h0ZM836,297.55c1.16-6.72-12.7-5.23-23.9,14.94-7.8,14.19-.75,18.34,4.15,14.19,3.73-2.57,10.04-11.2,14.19-16.77,1.08-2.24,5.23-7.14,5.56-12.36h0Z"/>
    </g>
    <rect class="st0" width="986.69" height="462.66"/>
  </g>
  <g>
    <path class="st0" d="M340.63,254.33c-.08,0-.58-.67-.8-.16,15.46,23.39-9.86,51.19-34.81,38.79,6.55,19.62-7.74,38.25-28.54,36.35-4.35-.4-10.08-2.97-13.45-5.71-.81-.66-4.26-4.59-4.79-4.46-18.77,24.48-56.79,4.41-46.79-24.89-22.38,8.52-44.08-12.88-34.96-35.43.58-1.43,1.52-2.71,2.07-4.15-11.45.72-22.81-7.61-26.09-18.45-3.51-11.6.61-23.01,10.12-30.23-31.48-17.5-8.67-63.06,24.27-48.04,2.96-28.88,42.29-33.17,52.21-6.07,9.87-11.61,27.96-12.46,38.96-1.91,10.34-23.59,44.72-21.35,50.93,3.84,9.38-4.28,20.02-3.4,28.24,2.89,14.22,10.87,13.82,32.29-.49,42.89-1.34.99-2.93,1.62-4.12,2.74,9.63,2.67,16.89,11.54,18.43,21.32,1.91,12.12-5,24.22-16.3,28.86-1.34.55-5.18,1.86-6.44,1.86-2.46,0-5.26.18-7.66,0h0ZM325.78,155.69c-3.34-16.6-22.49-24.24-36.37-14.17-3.01,2.19-5.85,5.51-7.33,8.95-.86,1.99-1.69,3.65.69,4.85,13.51-6.58,29.58-6.25,43.01.37h0ZM236.05,155.05c-6.09-24.71-41.41-23.27-45.34,1.92,2.13-1,4.19-2.17,6.39-3.03,10.03-3.91,21.16-4.49,31.53-1.53,2.54.73,4.89,1.92,7.42,2.64h0ZM259.05,177.08c.48.11.51-.07.78-.34.94-.95,2-3.21,2.92-4.42,4.66-6.14,9.98-10.98,16.39-15.23-7.22-12.13-24.1-14.62-34.78-5.39-1.11.96-5.02,4.68-3.83,6.07,7.54,4.81,14.23,11.45,18.52,19.31h0ZM350.69,198.47c4.05-1.26,7.82-5.01,10.03-8.64,12.34-20.3-10.65-43.78-31.1-32.06,1.9,1.73,4.15,3.06,6.07,4.78,9.83,8.88,15.53,22.64,15.01,35.92h0ZM259.05,180.91c-12.05-22-39.87-31.56-62.49-19.21-23.76,12.98-26.39,42.4-18.23,65.89,8.66,24.93,41.32,48.08,60.91,65.51,6.81,6.06,13.31,12.5,20.27,18.37,8.03-7.2,15.99-14.69,24.1-21.88,19.89-17.61,50.26-38.77,57.89-65.03,6.52-22.44,4.05-49.03-17.67-61.99-22.89-13.65-51-4.25-64.02,17.99l-.78.34h0ZM184.64,160.81c-16.66-7.54-34.62,4.85-33.22,23.15.52,6.81,4.97,13.8,10.77,17.32.77.47,5.52,3.15,5.86,1.77-.76-13.23,2.53-26.42,11.32-36.5,1.35-1.55,3.9-3.4,4.96-4.94.18-.27.44-.32.31-.8h0ZM350.71,205.5c-.3.21-.56,5.48-.7,6.49-1.88,13.4-6.73,25.82-15.6,36.12,11.33,6.36,25.99.71,31.24-10.9,5.82-12.86-1.24-28.34-14.95-31.71h0ZM168.35,207.09c-16.35,7.33-18.06,30.35-2.97,40.16,4.09,2.66,11.72,4.99,16.48,3.5.57-.18,2.6-2.26,2.43-2.9-.07-.25-2.64-3.28-3.1-3.95-7.72-11.17-11.9-23.17-12.83-36.81h0ZM187.04,251.16c-18.06,14.37-6.68,43.07,16.6,41.16,2.98-.25,8.4-2.04,10.68-4,1.91-1.64,3.32-4.65,5.76-6.05-11.15-10.22-23.14-19.61-33.04-31.11h0ZM332.05,251.16c-10.13,10.99-21.39,20.82-32.8,30.44l-.3.65c5.99,9.13,17.83,12.31,27.9,8.1,16-6.69,19.08-28.71,5.2-39.19h0ZM223.12,284.73c-8.92,6.2-11.95,18.22-7.46,28.13,6.26,13.83,24.14,17.88,35.87,8.18.99-.82,5.37-5.25,4.82-6.37l-33.22-29.94h0ZM295.01,285.32l-33.43,30.13-.31.65c9.46,13.45,29.87,12.67,38.46-1.46,5.77-9.49,3.95-22.32-4.72-29.32h0Z"/>
    <g>
      <polygon class="st0" points="278.2 139.1 270.25 137.8 270.22 137.04 286.18 71.75 278.2 139.1"/>
      <path class="st0" d="M237.02,139.1l-7.99-66.71,15.91,64.71c.1.41-.17.53-.49.66-1.83.75-5.41.57-7.43,1.35h0Z"/>
      <polygon class="st0" points="261.6 137.18 253.3 137.18 257.61 69.19 261.6 137.18"/>
    </g>
  </g>
</svg>