<?xml version="1.0" encoding="UTF-8"?>
<svg id="Capa_1" data-name="Capa 1" xmlns="http://www.w3.org/2000/svg" viewBox="0 0 999.694 423.471">
  <g>
    <path d="M574.056,238.336c-4.924-.493-9.75-1.772-14.676-2.265-5.713,2.659-12.804,3.545-18.615,2.659-4.826-2.659-.394-6.205,2.66-6.599,3.545-.493,7.978-.887,12.41-.493,2.266-2.166,3.152-6.205,3.545-11.918,1.379-7.092,1.773-15.956,2.266-25.313-10.243,4.432-21.767,4.038-33.291,2.265-85.099,105.882-185.661,207.43-325.72,224.272-48.755,5.713-103.321,3.546-145.378-25.707-47.868-31.518-55.453-93.964-8.471-130.308,1.379-1.379,2.66.887,1.773,1.773-60.673,54.467-4.827,119.671,56.339,139.173,93.077,32.798,197.186-6.205,273.42-63.43,54.566-41.664,99.775-93.078,142.324-146.265-7.584-1.28-14.675-2.659-21.767-3.053-25.215-3.546-40.284.887-58.505,18.124-8.865,1.772-3.546-8.866.886-11.525,15.956-13.297,39.004-13.297,58.112-10.637,7.485.886,15.956,2.265,23.934,3.545,16.842-20.782,33.193-42.057,50.035-63.331,3.151-4.432,7.092-8.471,12.016-11.524,1.281-.493,2.659.887,1.773,1.773-7.584,15.956-7.978,32.306-10.244,49.641-3.053,20.782,0,46.096-14.576,62.938,16.35.887,32.798,1.773,39.397-15.562,0-1.281,2.266-1.281,2.266,0,1.281,16.448-18.615,23.54-31.912,21.767ZM531.014,193.521c11.13,1.379,21.768.887,31.026-3.94.493-14.183,1.379-29.745,5.319-42.549-11.918,15.07-23.934,31.026-36.344,46.489Z"/>
    <path d="M633.457,168.306c.099,1.478-.099,3.053-.296,4.63l2.56-3.349c14.775-18.517,25.904-7.486,25.215-1.281-.885,10.638-12.41,10.638-13.296,5.319-1.281-5.319-7.387-8.766-21.275,17.236-2.069,3.841-3.644,7.387-4.432,9.751-2.66,7.978,0,11.13,4.826,7.978l1.773,1.773c-4.433,5.319-15.464,8.47-18.615,1.378-4.433-9.357,9.356-31.518,11.13-39.003,1.281-5.319-1.379-4.925-5.811-.887l-1.281-2.265c9.258-9.258,19.009-10.145,19.502-1.281Z"/>
    <path d="M672.463,136.788l-1.281-2.167c7.092-7.584,20.389-8.47,19.896,2.167-.197,5.221-1.872,10.933-4.432,17.335h14.182l-1.28,4.432h-14.676c-3.349,7.781-7.584,16.35-11.524,25.707-5.713,13.691-7.092,18.123-6.205,21.275.887,2.66,3.545,4.433,13.789-4.038l1.772,2.265c-10.243,13.297-22.653,16.843-27.479,7.486-1.773-4.433-.493-11.525,2.166-18.124,3.152-8.963,9.456-22.85,14.381-34.572h-10.834l1.379-4.432h11.228c2.462-6.008,4.235-11.13,4.727-14.183.394-4.432-2.266-5.319-5.811-3.152Z"/>
    <path d="M696.498,216.175c-11.524-4.924-12.016-19.503-6.205-31.913,6.205-12.903,17.729-19.502,24.821-21.767,14.578-4.826,25.215,4.432,16.351,16.843-6.402,8.963-21.177,14.38-31.321,16.941.887,5.418,3.545,9.85,7.386,11.426,7.092,2.66,16.843-1.281,22.654-7.978l2.167,2.659c-3.546,6.206-23.048,19.109-35.853,13.79ZM721.713,175.792c4.924-7.978,1.379-12.804-5.319-9.751-3.939,1.773-11.524,7.584-15.07,17.729-.984,2.856-1.477,5.811-1.477,8.668,9.356-3.546,17.138-8.569,21.865-16.646Z"/>
    <path d="M764.365,214.599c-7.387,5.516-21.275,5.121-26.889.394-6.107-5.121-6.698-13.002-4.235-18.123,2.659-6.008,10.637-5.319,11.721-.887,1.281,5.122-1.97,7.781-2.167,11.229-.788,8.471,11.031,10.244,16.842,2.266,3.842-4.925,1.773-13.692-4.826-19.503-12.115-11.13-6.501-27.677,7.387-30.829,13.592-2.856,19.009,4.728,17.335,12.016-2.462,8.372-14.773,7.092-11.622-1.97,3.152-7.978-10.539-8.273-10.834.887-.197,5.516,3.151,9.751,8.568,13.887,10.146,7.781,9.555,22.654-1.28,30.632Z"/>
    <path d="M813.421,211.742c-3.546-9.357,2.166-23.54,10.144-32.798,8.471-9.751,17.335-15.07,23.54-16.843,6.599-1.773,11.918-.493,12.804,2.659,8.471-19.994,12.706-30.829,13.395-35.556.591-4.432-2.069-5.319-5.614-3.152l-1.281-2.167c7.092-7.584,19.502-8.864,20.093,1.773.69,13.592-11.524,29.351-19.896,55.058-3.151,8.864-5.319,16.843-4.432,23.048.394,4.432,4.826,5.713,10.637-2.659l1.773,2.167c-5.811,13.297-17.335,14.675-21.768,9.357-3.939-4.432-3.053-12.903-1.772-21.275-.788.985-1.478,2.068-2.266,3.152-4.333,5.713-9.258,12.016-14.085,17.236-8.864,9.752-18.615,7.092-21.274,0ZM856.857,170.473c1.281-8.864-13.789-6.599-27.48,18.616-9.356,16.842-1.773,20.881,3.939,15.956,4.433-3.054,12.017-13.297,16.843-19.896,1.773-2.659,5.811-8.47,6.698-14.676Z"/>
    <path d="M887.493,216.175c-11.524-4.924-12.016-19.503-6.205-31.913,6.205-12.903,17.729-19.502,24.821-21.767,14.578-4.826,25.215,4.432,16.351,16.843-6.402,8.963-21.177,14.38-31.321,16.941.887,5.418,3.545,9.85,7.386,11.426,7.092,2.66,16.843-1.281,22.654-7.978l2.167,2.659c-3.546,6.206-23.048,19.109-35.853,13.79ZM912.707,175.792c4.924-7.978,1.379-12.804-5.319-9.751-3.939,1.773-11.524,7.584-15.07,17.729-.984,2.856-1.477,5.811-1.477,8.668,9.356-3.546,17.138-8.569,21.865-16.646Z"/>
    <path d="M563.419,240.415c15.956-5.319,37.132-5.22,46.193,11.031,15.76,28.367-1.576,74.069-30.73,93.078-11.819,7.682-26.003,13.198-38.511,12.016-41.367-3.645-40.973-72.492-.099-103.518,6.796-5.023,15.267-10.736,23.147-12.607ZM574.45,342.357c11.327-7.289,19.305-19.699,23.047-31.518,7.289-22.752,11.524-62.938-19.501-67.764-3.546-.493-6.599,0-9.752.394-8.865,2.265-16.251,7.583-22.161,13.788-21.177,21.965-32.011,79.781.491,89.335,10.934,3.251,20.586.493,27.874-4.235Z"/>
    <path d="M621.934,330.341c-4.039-9.752,2.166-24.328,11.031-33.193,9.358-9.75,18.615-14.676,27.086-16.842,13.297-3.546,19.896,3.545,17.729,12.804-2.266,10.243-9.358,21.274-9.358,28.858,0,4.433,4.433,5.713,14.183-2.659l1.773,2.166c-9.752,13.297-21.669,16.449-26.594,8.865-2.167-3.546-2.167-10.144,1.379-19.896l-2.364,3.152c-4.136,5.516-8.273,11.13-13.198,16.35-8.864,9.75-19.009,7.092-21.668.394ZM665.764,288.678c1.379-7.978-15.07-6.206-28.367,17.729-9.258,16.842-.887,21.767,4.926,16.842,4.432-3.053,11.918-13.297,16.842-19.896,1.281-2.659,6.205-8.47,6.599-14.675Z"/>
    <path d="M716.297,286.511c1.576,4.629,2.266,10.933,2.955,17.039,5.22-3.841,10.933-9.849,11.228-13.494.493-3.545-3.939-3.545-5.713-1.772l-1.773-2.266c11.524-9.752,22.162-7.092,19.896,1.773-2.069,8.273-13.789,14.97-23.047,20.782.788,6.107,1.872,11.426,4.038,13.789,3.941,4.432,8.865,3.546,15.07-1.773l1.772,2.266c-7.583,11.031-19.993,14.578-26.593,8.865-4.039-3.645-5.614-12.607-6.501-21.275-5.516,3.742-11.819,10.243-12.115,14.183-.493,3.545,3.939,3.545,5.713,1.773l1.772,2.166c-11.524,9.752-22.161,7.092-19.895-1.773,2.166-8.568,14.675-15.463,24.032-21.471-.493-6.402-.887-12.016-1.872-14.381-1.773-4.432-7.092-3.545-10.243-.887l-1.281-2.265c9.258-9.259,19.502-10.146,22.555-1.281Z"/>
    <path d="M744.273,330.341c-4.039-9.752,2.166-24.328,11.031-33.193,9.358-9.75,18.615-14.676,27.086-16.842,13.297-3.546,19.896,3.545,17.729,12.804-2.266,10.243-9.358,21.274-9.358,28.858,0,4.433,4.433,5.713,14.183-2.659l1.773,2.166c-9.752,13.297-21.669,16.449-26.594,8.865-2.167-3.546-2.167-10.144,1.379-19.896l-2.364,3.152c-4.136,5.516-8.273,11.13-13.198,16.35-8.864,9.75-19.009,7.092-21.668.394ZM788.103,288.678c1.379-7.978-15.07-6.206-28.367,17.729-9.258,16.842-.887,21.767,4.926,16.842,4.432-3.053,11.918-13.297,16.842-19.896,1.281-2.659,6.205-8.47,6.599-14.675Z"/>
    <path d="M820.512,334.379c-11.524-4.924-12.016-19.502-6.205-31.912,6.205-12.903,17.729-19.502,26.101-22.161,13.297-4.039,22.162,4.432,19.108,12.804-2.66,7.092-15.07,5.811-12.016-4.432,2.66-8.865-14.578-7.486-22.162,13.296-3.545,9.752-.393,21.275,6.205,23.935,7.092,2.659,16.843-1.281,22.654-7.978l2.167,2.659c-3.546,6.205-23.048,19.108-35.853,13.789Z"/>
    <path d="M862.672,330.341c-4.039-9.752,2.166-24.328,11.031-33.193,9.358-9.75,18.615-14.676,27.086-16.842,13.297-3.546,19.896,3.545,17.729,12.804-2.266,10.243-9.358,21.274-9.358,28.858,0,4.433,4.433,5.713,14.183-2.659l1.773,2.166c-9.752,13.297-21.669,16.449-26.594,8.865-2.167-3.546-2.167-10.144,1.379-19.896l-2.364,3.152c-4.136,5.516-8.273,11.13-13.198,16.35-8.864,9.75-19.009,7.092-21.668.394ZM906.502,288.678c1.379-7.978-15.07-6.206-28.367,17.729-9.258,16.842-.887,21.767,4.926,16.842,4.432-3.053,11.918-13.297,16.842-19.896,1.281-2.659,6.205-8.47,6.599-14.675Z"/>
  </g>
  <g>
    <path d="M318.607,237.383c-.098-.007-.683-.796-.945-.192,18.348,27.756-11.703,60.748-41.308,46.033,7.773,23.284-9.192,45.398-33.871,43.136-5.163-.473-11.958-3.523-15.957-6.779-.962-.783-5.061-5.447-5.681-5.296-22.28,29.059-67.4,5.229-55.53-29.545-26.56,10.113-52.32-15.284-41.49-42.048.688-1.701,1.808-3.22,2.455-4.929-13.59.857-27.067-9.03-30.966-21.892-4.171-13.761.727-27.308,12.012-35.882-37.365-20.774-10.293-74.842,28.807-57.016,3.518-34.273,50.195-39.363,61.963-7.204,11.707-13.777,33.184-14.794,46.235-2.272,12.27-27.996,53.07-25.34,60.448,4.554,11.128-5.083,23.76-4.033,33.519,3.425,16.88,12.897,16.399,38.325-.585,50.905-1.586,1.175-3.482,1.926-4.893,3.249,11.425,3.166,20.047,13.7,21.877,25.299,2.269,14.386-5.933,28.745-19.345,34.25-1.587.651-6.144,2.205-7.648,2.205-2.922,0-6.237.216-9.095,0h0ZM300.983,120.322c-3.964-19.705-26.69-28.765-43.159-16.815-3.577,2.596-6.947,6.541-8.703,10.62-1.016,2.359-2.011,4.337.821,5.758,16.036-7.81,35.11-7.412,51.041.437ZM194.494,119.564c-7.23-29.32-49.142-27.614-53.81,2.273,2.525-1.182,4.975-2.574,7.583-3.591,11.901-4.643,25.119-5.327,37.422-1.811,3.01.86,5.799,2.283,8.804,3.128h0ZM221.786,145.704c.573.134.607-.082.921-.399,1.114-1.125,2.371-3.809,3.464-5.25,5.527-7.287,11.839-13.025,19.454-18.074-8.57-14.393-28.599-17.355-41.281-6.397-1.322,1.142-5.959,5.556-4.541,7.199,8.943,5.705,16.892,13.59,21.983,22.922h0ZM330.546,171.086c4.808-1.502,9.283-5.943,11.905-10.258,14.645-24.093-12.636-51.959-36.912-38.043,2.259,2.058,4.93,3.629,7.198,5.677,11.669,10.539,18.432,26.872,17.808,42.623h0ZM221.786,150.25c-14.305-26.112-47.314-37.46-74.158-22.794-28.192,15.402-31.318,50.317-21.629,78.197,10.284,29.592,49.039,57.065,72.291,77.752,8.083,7.191,15.799,14.835,24.059,21.802,9.535-8.542,18.972-17.437,28.607-25.968,23.602-20.9,59.643-46.013,68.698-77.177,7.737-26.628,4.806-58.19-20.974-73.563-27.171-16.203-60.526-5.046-75.973,21.353l-.921.399h0ZM133.48,126.39c-19.776-8.947-41.082,5.756-39.426,27.475.617,8.083,5.903,16.379,12.785,20.557.914.554,6.553,3.739,6.953,2.096-.899-15.706,2.998-31.359,13.431-43.319,1.606-1.842,4.631-4.038,5.885-5.861.22-.319.527-.376.372-.947ZM330.563,179.433c-.354.246-.663,6.502-.831,7.7-2.23,15.907-7.991,30.643-18.508,42.862,13.449,7.553,30.844.839,37.078-12.935,6.905-15.259-1.473-33.63-17.738-37.628h0ZM114.152,181.315c-19.399,8.703-21.432,36.02-3.526,47.661,4.851,3.153,13.907,5.917,19.553,4.158.68-.212,3.089-2.678,2.884-3.443-.08-.301-3.131-3.895-3.68-4.691-9.157-13.261-14.123-27.5-15.231-43.685h0ZM136.33,233.615c-21.438,17.056-7.93,51.119,19.694,48.843,3.541-.292,9.969-2.424,12.679-4.752,2.27-1.949,3.938-5.517,6.836-7.176-13.232-12.124-27.462-23.274-39.21-36.916h0ZM308.426,233.622c-12.017,13.039-25.387,24.706-38.926,36.129l-.352.774c7.114,10.839,21.164,14.606,33.109,9.612,18.988-7.938,22.645-34.069,6.169-46.515h0ZM179.152,273.463c-10.588,7.352-14.179,21.621-8.857,33.381,7.427,16.412,28.647,21.217,42.568,9.703,1.179-.975,6.375-6.234,5.715-7.555l-39.427-35.529h0ZM264.467,274.157l-39.677,35.755-.37.775c11.233,15.959,35.452,15.039,45.649-1.735,6.843-11.258,4.694-26.483-5.602-34.795h0Z"/>
    <g>
      <polygon points="244.518 100.627 235.076 99.08 235.04 98.186 253.989 20.692 244.518 100.627"/>
      <path d="M195.639,100.626l-9.478-79.176,18.881,76.796c.113.485-.199.626-.584.784-2.17.891-6.42.682-8.819,1.596h0Z"/>
      <polygon points="224.812 98.351 214.959 98.351 220.075 17.656 224.812 98.351"/>
    </g>
  </g>
  <rect width="999.694" height="420.172" fill="none"/>
</svg>