<?xml version="1.0" encoding="UTF-8"?>
<svg id="Capa_1" data-name="Capa 1" xmlns="http://www.w3.org/2000/svg" viewBox="0 0 991.212 965.974">
  <path d="M556.818,118.428c2.14.405,1.988.335,3.237-.994,14.621-15.551,42.576-44.056,63.514-49.535,29.38-7.688,11.656,22.947,8.866,35.265-4.798,21.185-5.154,42.427.546,63.403,2.274,1.588,24.256-11.683,29.07-13.59,10.541-4.176,27.307-8.824,38.498-9.666,48.633-3.662,15.137,19.492,3.216,35.844-29.445,40.391-18.556,89.912-58.358,128.079-7.037,6.748-53.633,36.745-52.74,41.691.253,1.403,4.724,4.308,5.45,8.684,1.633,9.844-14.609,23.773-20.345,31.139-1.216,1.561-2.999,1.99-2.308,4.668,85.177-38.672,183.89-9.738,223.986,76.643,73.207,157.716-94.948,304.036-197.561,399.578-29.865,27.807-62.678,58.926-94.059,84.61-7.547,6.177-14.435,13.173-24.905,7.894-74.827-67.691-152.553-133.465-220.551-208.251-68.028-74.817-127.475-174.249-83.368-277.617,38.047-89.166,140.217-123.815,227.101-82.865-5.436-9.637-24.933-25.335-21.083-37.344,2.359-7.356,9.638-3.968.061-12.31-26.282-22.894-50.59-29.67-68.772-63.287-17.475-32.309-14.907-72.32-37.639-100.636-4.917-6.125-38.233-32.72-14.628-36.446,27.92-4.407,61.866,10.77,86.116,23.207,4.275-21.432,5.034-45.56-.753-66.818-2.493-9.159-16.557-30.13.121-32.541,9.408-1.36,31.858,12.947,40.001,18.832,13.208,9.546,24.076,22.138,35.204,33.917,3.814-36.661,32.892-62.445,48.2-93.974,5.314-10.945,5.95-30.773,23.384-24.965,6.734,2.244,11.073,21.801,14.59,28.897,14.286,28.828,42.929,54.368,45.91,88.486Z" fill="#1c1c1c"/>
  <path d="M491.336,511.183c1.064.659,4.65.649,5.732-.008,1.275-.775,9.762-22.594,12.384-27.143,51.556-89.449,195.677-115.457,257.803-21.494,85.777,129.732-41.895,259.965-129.525,345.219-30.736,29.903-63.611,60.361-95.416,89.173-15.991,14.487-32.309,29.153-49.154,42.413-16.076-14.221-32.689-28.021-48.612-42.413-29.959-27.079-60.179-54.911-89.211-82.968-83.454-80.649-214.318-207.474-145.8-335.124,58.835-109.611,209.479-93.143,268.862,5.758,2.625,4.373,11.682,25.81,12.939,26.588Z" fill="#c1272d"/>
  <g>
    <path d="M456.565,343.191c-1.946-.205-4.012.528-5.409-1.54-6.2-14.325-11.638-29.223-19.144-42.934-19.373-35.389-52.121-65.658-56.083-108.341-2.756-29.689,9.387-60.108-1.576-89.152,1.069-1.082,12.458,8.688,13.982,10.046,13.791,12.283,23.95,25.695,32.332,42.124,5.505,10.789,14.648,40.632,20.303,47.539,5.239,6.399,11.949,1.803,12.281-5.798.538-12.323-6.148-32.535-6.137-46.617.013-17.278,7.016-39.724,14.849-55.098,9.124-17.908,24.549-32.394,31.85-51.153l32.821,50.144c11.439,21.534,16.838,42.34,15.226,66.946-.651,9.935-6.8,31.756-4.311,40.035,1.063,3.535,4.037,4.684,7.482,3.586,6.64-2.117,15.141-29.508,18.784-37.178,12.855-27.06,25.265-47.635,50.954-64.592-3.124,15.001-3.915,30.463-3.161,45.833.392,7.978,2.785,17.008,3.162,24.76,3.299,67.804-60.226,108.918-77.407,170.421-1.047,1.821-3.151.866-4.791.967l-1.893-6.597c8.38-36.249,21.651-70.815,39.812-103.697.792-.92,8.374-19.039,6.097-17.615-22.913,14.323-43.479,41.958-51.735,67.541-3.05,7.452-10.294,20.904-15.58,8.035,1.124-51.734-3.476-103.878-10.935-154.817-.094-2.147-2.874-7.89-5.359-7.059-7.31,2.444-13.723,136.652-13.075,153.316.509,16.867-8.302,17.995-13.549,4.03-7.231-21.591-17.681-38.845-33.34-55.298-12.067-12.679-28.162-26.321-13.584,3.481,18.579,34.156,34.344,67.878,39.708,105.868l-2.575,2.813Z" fill="#f9b233"/>
    <path d="M456.293,342.081l-6.499-30.657c-5.969-30.18-27.019-57.258-36.688-84.633-4.834-13.687-.644-15.149,10.317-7.291,11.333,8.125,25.992,26.111,33.126,38.154,6.052,10.218,9.819,24.672,15.09,33.441,1.14,1.897,1.91,3.352,3.636.964,2.096-19.359,1.046-39.026,2.266-58.398,1.732-27.505,3.234-70.612,10.105-96.057.663-2.454.795-8.105,4.28-7.961,8.474.35,8.676,12.651,9.671,19.267,4.531,30.119,7.701,72.209,9.278,102.949.709,13.827-.496,27.853.023,41.683,3.513.529,5.2-3.711,6.637-6.238,5.425-9.544,8.533-22.433,14.834-32.18,9.729-15.05,27.034-31.483,41.276-41.872,1.426.922,3.32,2.371,3.741,4.022,1.115,4.375-32.051,69.846-36.191,81.558-5.012,14.18-7.782,28.525-10.59,43.249-19.926,1.23-54.981,2.041-74.313,0Z" fill="#c1272d"/>
    <path d="M416.648,367.184h149.688c.513,0,2.93,2.626,2.326,3.862-29.672,22.548-49.374,55.677-71.315,85.359-2.298,3.123-5.545,3.152-7.82-.011-16.395-20.709-30.362-43.957-48.1-63.575-6.913-7.645-16.167-14.089-22.499-20.934-1.42-1.535-2.826-2.189-2.279-4.701Z" fill="#30cfcf"/>
    <path d="M557.186,342.214c-5.818-5.56,49.136-79.064,54.847-88.406,16.442-26.893,18.966-53.917,48.445-70.815,8.232-4.719,15.939-7.639,25.24-9.593,1.08,1.257-8.647,14.319-10.08,17.009-18.125,34.027-11.968,70.41-41.729,100.764-5.707,5.82-64.109,50.104-68.286,50.973-2.637.549-5.715-.082-8.438.068Z" fill="#f9b233"/>
    <path d="M433.263,345.457c-3.749.01-7.334.61-10.981-.844-4.974-1.983-50.855-37.524-57.622-43.388-40.354-34.97-29.601-66.938-49.959-107.869-3.172-6.377-8.754-11.56-10.845-18.338,2.798-2.5,25.534,8.39,29.458,10.773,25.122,15.253,25.8,34.56,38.131,58.144,5.744,10.987,67.099,96.453,61.818,101.521Z" fill="#f9b233"/>
  </g>
  <path d="M628.037,728.82c-29.2,31.342-63.331,63.795-95.858,91.754-5.771,4.961-33.126,28.669-38.162,28.685-1.243.004-2.388-.45-3.453-1.052-43.341-35.21-86.73-72.563-125.041-113.246-51.152-54.319-144.718-162.007-64.526-231.202,65.312-56.355,130.323-3.815,176.709,45.843,5.201,5.568,9.723,14.169,16.099,17.837,1.796-.311,20.781-23.733,24.278-27.2,41.618-41.266,99.342-82.159,157.785-45.559,22.096,13.838,38.786,43.244,41.379,69.165,5.887,58.854-51.581,124.586-89.208,164.975Z"/>
  <path d="M509.298,581.921c35.524-39.834,98.611-108.951,156.792-67.641,76.634,54.412-10.956,155.967-53.393,201.385-36.682,39.259-77.038,75.944-119.136,109.208-15.228-12.481-31.252-24.529-45.963-37.608-47.519-42.246-134.459-126.728-152.12-187.295-8.874-30.432-4.351-61.374,21.34-82.098,53.278-42.977,109.612,6.266,145.615,45.926,4.367,4.81,25.284,32.564,27.209,33.544,6.072,3.093,15.157-10.376,19.657-15.422Z" fill="#c1272d"/>
  <path d="M394.483,798.273c29.449-5.392,28.593,31.093,5.806,32.384-20.531,1.163-24.312-28.996-5.806-32.384Z" fill="#f9b233"/>
  <path d="M491.067,866.715c15.43-2.98,27.383,18.918,12.097,30.882-20.818,16.293-40.881-25.324-12.097-30.882Z" fill="#f9b233"/>
  <circle cx="720.317" cy="476.458" r="16.868" fill="#f9b233"/>
  <circle cx="235.993" cy="549.807" r="16.845" fill="#f9b233"/>
  <path d="M408.457,450.936c16.429-3.756,29.702,10.628,20.487,25.148-4.455,7.02-17.334,8.817-23.929,4.099-10.696-7.652-9.371-26.317,3.442-29.246Z" fill="#f9b233"/>
  <circle cx="587.746" cy="814.031" r="16.821" fill="#f9b233"/>
  <circle cx="650.272" cy="448.313" r="16.786" fill="#f9b233"/>
  <path d="M570.452,450.963c27.921-5.7,26.966,30.222,5.731,32.317-19.287,1.903-25.51-28.28-5.731-32.317Z" fill="#f9b233"/>
  <circle cx="339.636" cy="448.336" r="16.686" fill="#f9b233"/>
  <path d="M746.415,533.464c20.247-4.587,30.685,25.491,11.437,31.683-23.43,7.537-32.169-26.986-11.437-31.683Z" fill="#f9b233"/>
  <circle cx="266.085" cy="476.314" r="16.565" fill="#f9b233"/>
  <path d="M691.898,678.313c25.291-5.816,29.439,25.859,11.76,30.423-24.84,6.413-29.114-26.432-11.76-30.423Z" fill="#f9b233"/>
  <circle cx="739.751" cy="625.764" r="16.271" fill="#f9b233"/>
  <circle cx="645.015" cy="754.83" r="16.289" fill="#f9b233"/>
  <path d="M283.917,678.359c24.79-4.656,26.914,26.216,8.646,30.431-24.624,5.681-26.997-26.985-8.646-30.431Z" fill="#f9b233"/>
  <path d="M243.444,609.792c24.189-4.005,26.578,38.409-4.681,30.418-14.483-3.702-11.208-27.787,4.681-30.418Z" fill="#f9b233"/>
  <circle cx="342.498" cy="755.121" r="16.127" fill="#f9b233"/>
  <path d="M735.433,287.709c-9.921-9.938,14.034-29.037,20.623-35.503,20.678-20.294,43.167-38.896,63.216-59.878,7.271-4.417,16.164-4.202,18.028,5.344,1.376,7.046-6.319,12.642-11.045,17.221-25.294,24.505-52.498,47.211-77.237,72.334-3.094,2.938-10.691,3.38-13.584.482Z" fill="#30cfcf"/>
  <path d="M161.198,190.239c7.01-2.118,11.05,1.124,16.063,5.123,26.804,21.38,52.344,54.287,78.697,77.107,9.453,9.963-1.851,22.603-13.201,14.76l-83.521-80.075c-3.682-3.71-3.867-15.153,1.963-16.915Z" fill="#30cfcf"/>
  <path d="M868.647,265.046c12.646-2.553,17.439,9.936,8.757,18.135l-94.448,52.003c-13.441,6.089-21.378-9.983-10.396-18.171l96.088-51.966Z" fill="#30cfcf"/>
  <path d="M113.76,266.678c2.802-2.646,9.793-2.54,13.216-.766,27.601,18.146,62.443,31.177,89.689,48.975,14.631,9.558,10.762,24.659-6.271,20.279-28.542-17.333-61.806-31.064-89.709-48.951-6.877-4.409-15.562-11.38-6.926-19.537Z" fill="#30cfcf"/>
  <path d="M91.947,350.815c2.779-2.633,10.452-2.176,14.244-1.797,19.154,1.913,64.205,11.263,82.664,17.052,15.006,4.706,13.215,20.887-2.956,20.213-26.729-1.114-60.91-15.281-88.48-17.592-8.332-1.641-11.592-12.079-5.473-17.876Z" fill="#30cfcf"/>
  <path d="M796.239,369.505c1.332-1.424,6.178-2.752,8.33-3.349,19.016-5.272,65.304-15.729,83.977-17.284,17.959-1.496,22.408,12.343,7.378,19.83-27.686,2.862-59.882,15.49-86.867,17.532-8.035.608-15.027-.371-14.88-10.055.029-1.931.745-5.265,2.062-6.673Z" fill="#30cfcf"/>
  <g>
    <path d="M558.407,119.25c2.141.405,1.989.335,3.239-.994,14.633-15.563,42.609-44.09,63.563-49.573,29.402-7.694,11.664,22.965,8.872,35.292-4.802,21.202-5.157,42.459.546,63.452,2.276,1.589,24.275-11.692,29.092-13.601,10.549-4.179,27.328-8.83,38.527-9.674,48.67-3.665,15.148,19.507,3.219,35.872-29.468,40.422-18.57,89.98-58.403,128.177-7.042,6.753-53.674,36.773-52.781,41.723.253,1.404,4.728,4.311,5.454,8.69,1.634,9.851-14.62,23.791-20.36,31.163-1.217,1.562-3.001,1.991-2.31,4.672,85.242-38.701,184.031-9.746,224.157,76.702,73.263,157.836-95.02,304.269-197.712,399.883-29.888,27.828-62.726,58.971-94.131,84.675-7.553,6.182-14.446,13.183-24.924,7.9-74.884-67.743-152.669-133.567-220.72-208.41-68.08-74.875-127.572-174.382-83.432-277.83,38.076-89.235,140.324-123.91,227.275-82.929-5.44-9.645-24.953-25.355-21.099-37.373,2.361-7.362,9.646-3.971.061-12.32-26.302-22.911-50.628-29.693-68.824-63.335-17.488-32.334-14.918-72.375-37.667-100.713-4.921-6.129-38.262-32.745-14.639-36.474,27.941-4.41,61.914,10.779,86.182,23.225,4.278-21.449,5.037-45.595-.754-66.869-2.495-9.166-16.569-30.153.121-32.566,9.415-1.361,31.883,12.957,40.032,18.846,13.218,9.553,24.094,22.155,35.231,33.943,3.817-36.689,32.917-62.492,48.236-94.046,5.318-10.953,5.955-30.796,23.402-24.984,6.739,2.245,11.081,21.817,14.601,28.92,14.297,28.85,42.962,54.41,45.945,88.554Z" fill="none" stroke="#000" stroke-miterlimit="10"/>
    <path d="M493.128,511.134c1.071.663,4.678.653,5.765-.008,1.282-.78,9.82-22.728,12.457-27.303,51.872-89.998,196.805-116.128,259.325-21.621,86.306,130.462-42.166,261.523-130.29,347.257-36.754,35.757-76.394,72.796-114.703,106.863-3.86,3.433-28.732,25.329-30.721,25.5-16.171-14.305-32.883-28.186-48.899-42.664-30.135-27.24-60.534-55.235-89.738-83.458-83.946-81.125-215.584-208.699-146.661-337.103,59.191-110.275,210.697-93.723,270.449,5.792,2.641,4.398,11.751,25.963,13.016,26.745Z" fill="none" stroke="#000" stroke-miterlimit="10"/>
    <path d="M417.303,366.143h151.707c.52,0,2.97,2.661,2.357,3.914-30.072,22.853-50.04,56.429-72.277,86.51-2.329,3.165-5.62,3.195-7.925-.011-16.616-20.988-30.772-44.55-48.749-64.433-7.006-7.749-16.385-14.279-22.802-21.216-1.439-1.556-2.864-2.218-2.31-4.765Z" fill="none" stroke="#000" stroke-miterlimit="10"/>
    <path d="M457.095,343.52c-1.955-.206-4.03.531-5.433-1.547-6.228-14.389-11.691-29.354-19.23-43.127-19.46-35.548-52.355-65.954-56.335-108.828-2.768-29.823,9.429-60.378-1.583-89.553,1.074-1.087,12.514,8.727,14.044,10.091,13.853,12.339,24.057,25.811,32.477,42.313,5.529,10.838,14.713,40.815,20.394,47.753,5.263,6.428,12.002,1.811,12.336-5.824.541-12.378-6.176-32.681-6.165-46.826.013-17.356,7.048-39.903,14.916-55.345,9.165-17.988,24.66-32.539,31.993-51.383l32.969,50.369c11.491,21.631,16.914,42.53,15.295,67.247-.654,9.98-6.83,31.899-4.33,40.215,1.067,3.551,4.056,4.705,7.515,3.602,6.67-2.126,15.209-29.641,18.868-37.345,12.913-27.182,25.379-47.85,51.183-64.882-3.138,15.069-3.933,30.6-3.175,46.039.393,8.014,2.798,17.084,3.177,24.871,3.314,68.109-60.497,109.408-77.755,171.187-1.052,1.829-3.165.87-4.812.971l-1.902-6.627c8.418-36.411,21.748-71.133,39.991-104.164.795-.924,8.412-19.124,6.125-17.695-23.016,14.388-43.674,42.147-51.968,67.845-3.063,7.486-10.34,20.998-15.65,8.071,1.312-37.963-1.989-75.719-5.534-113.497-1.299-13.848-8.071-82.13-15.1-29.266-5.915,44.488-8.147,89.136-8.865,134.166.508,16.942-8.342,18.074-13.613,4.047-7.264-21.688-17.761-39.02-33.49-55.546-12.121-12.736-28.288-26.439-13.645,3.496,18.662,34.309,34.498,68.182,39.886,106.344l-2.587,2.825Z" fill="none" stroke="#000" stroke-miterlimit="10"/>
    <line x1="455.204" y1="343.584" x2="536.371" y2="343.665" fill="none" stroke="#000" stroke-miterlimit="10"/>
    <path d="M433.483,343.365c-3.705.669-7.24.602-10.841-.833-4.91-1.957-50.206-37.045-56.886-42.834-39.839-34.523-29.223-66.084-49.321-106.493-3.132-6.296-8.642-11.412-10.706-18.103,2.762-2.468,25.208,8.283,29.082,10.635,24.802,15.058,25.471,34.119,37.644,57.402,5.671,10.847,66.242,95.222,61.029,100.225Z" fill="none" stroke="#000" stroke-miterlimit="10"/>
    <path d="M557.637,343.293c-5.853-5.594,49.431-79.539,55.177-88.937,16.541-27.055,19.08-54.241,48.736-71.24,8.282-4.748,16.034-7.685,25.391-9.651,1.087,1.265-8.698,14.405-10.14,17.111-18.234,34.231-12.04,70.833-41.979,101.37-5.741,5.855-64.494,50.405-68.696,51.279-2.653.552-5.749-.083-8.489.069Z" fill="none" stroke="#000" stroke-miterlimit="10"/>
    <path d="M821.664,702.921c27.722-13.49,56.24-25.99,88.01-23.333,20.814,1.741,55.863,17.366,71.652,31.185,26.805,23.46-10.564,33.48-28.033,45.107-27.631,18.39-46.535,36.696-82.479,39.057-33.033,2.169-64.219-14.178-97.145-5.215-16.277,4.431-29.744,15.508-40.813,27.745l24.332-5.273c37.757-12.551,113.271,26.09,122.942,63.647,5.895,22.891-22.927,18.013-38.546,22.307-27.364,7.522-44.174,23.824-76.065,15.966-32.338-7.968-48.804-40.538-87.52-31.529-16.333,3.801-32.47,14.646-38.638,30.685,14.814-3.863,30.394-5.49,44.689,1.289,8.745,4.147,45.413,34.393,23.894,40.164-6.684,1.793-37.018-12.648-48.25-14.251-9.897-1.413-21.021-1.606-30.296,2.583-6.265,2.829-23.985,21.078-28.324,7.681-2.285-7.055,4.868-22.446,7.954-29.609,20.211-46.925,63.251-75.603,98.912-109.879,40.37-38.802,88.964-93.755,111.943-145.15,15.21-34.019,17.051-68.92,43.052-98.739,25.169-28.864,72.356-47.237,110.504-41.908,18.921,2.643,11.389,27.812,7.931,40.366-7.376,26.776-26.005,53.716-48.564,69.854-36.295,25.965-89.801,21.529-111.142,67.249Z" fill="#1c1c1c" stroke="#000" stroke-miterlimit="10"/>
    <path d="M808.243,759.998c11.218-3.772,76.624-15.99,81.022-21.027,2.086-2.389,2.657-7.662.083-9.461-9.863-6.895-71.355,13.036-85.779,14.891,3.426-9.076,13.678-14.977,21.772-19.503,42.008-23.494,93.72-34.695,134.006-1.526-25.417,17.759-54.317,44.536-86.474,47.5-21.448,1.977-41.159-2.926-61.989-6.519l-2.641-4.355Z" fill="#30cfcf" stroke="#000" stroke-miterlimit="10"/>
    <path d="M960.928,546.533c-7.232,40.496-36.299,77.637-77.894,85.682-.677-2.933,1.657-3.693,3.105-5.449,5.147-6.241,21.907-17.775,24.117-22.613,1.874-4.105,1.388-14.251-4.348-13.739-8.13.726-34.511,32.456-43.117,39.493-1.377,1.126-8.14,6.699-9.362,5.424,11.782-53.692,51.977-88.367,107.5-88.797Z" fill="#30cfcf" stroke="#000" stroke-miterlimit="10"/>
    <path d="M848.753,873.728c-24.082-.321-45.523,20.08-69.302,18.696-19.755-1.15-32.926-12.959-48.615-23.092l-17.638-8.044c9.551-1.802,20.604-2.349,30.35-1.551,9.738.797,41.498,11.365,47.636,7.083,2.444-1.705,1.749-6.288.671-8.647-4.575-10.004-45.811-16.696-56.852-17.174,2.583-4.23,10.534-6.283,15.234-7.343,28.255-6.374,60.594,2.515,82.946,20.585,2.801,2.264,18.263,16.834,15.57,19.488Z" fill="#30cfcf" stroke="#000" stroke-miterlimit="10"/>
    <path d="M350.83,912.189c-11.112-27.521-44.146-37.995-71.179-28.333-16.667,5.956-30.581,20.751-46.801,26.431-40.135,14.056-60.783-8.836-96.646-16.398-14.511-3.06-34.284.889-24.033-23.259,18.079-42.586,78.508-66.811,122.367-59.494,7.669,1.279,15.181,4.753,22.805,5.241-5.483-7.263-13.477-14.378-21.335-19.176-40.686-24.84-74.627-.036-116.528-3.449-34.855-2.839-52.096-20.409-78.848-38.012-11.215-7.379-46.279-20.072-39.196-36.356,4.8-11.036,35.667-27.72,47.151-32.314,31.593-12.638,59.252-10.821,90.732,1.146,10.309,3.919,18.965,9.871,29.218,13.615-20.167-44.966-71.877-40.952-107.369-64.789-24.786-16.647-43.863-43.974-51.969-72.682-10.754-38.085-2.447-43.199,35.522-40.197,37.33,2.951,74.347,25.575,94.254,56.885,13.486,21.211,16.771,41.288,24.83,63.984,16.165,45.523,57.372,103.173,91.172,137.875,40.172,41.244,102.509,81.809,125.737,134.472,2.86,6.485,14.615,31.821,5.975,36.109-9.024,4.478-17.87-8.035-25.897-11.513-9.511-4.121-20.175-4.029-30.288-2.591-14.141,2.01-33.139,13.974-44.749,14.549-13.189.653-8.136-13.425-3.202-20.43,15.822-22.466,42.373-29.963,68.276-21.314Z" stroke="#000" stroke-miterlimit="10"/>
    <path d="M187.98,744.657c-19.426-2.832-37.909-10.576-57.29-13.59-8.73-1.358-37.255-7.462-29.997,8.192,7.886,4.822,82.585,19.032,82.581,23.333-19.103,6.969-44.017,10.511-64.44,8.378-10.708-1.118-22.121-6.222-32.2-9.87l-54.456-37.44c37.921-30.674,82.573-23.759,123.671-3.729,11.17,5.444,26.293,13.472,32.13,24.726Z" fill="#30cfcf" stroke="#000" stroke-miterlimit="10"/>
    <path d="M136.553,635.596c-1.144,1.306-7.945-4.271-9.361-5.425-7.536-6.143-35.846-38.671-41.562-39.541-4.502-.685-8.145,7.443-5.92,12.226,3.43,7.374,24.212,20.762,28.806,29.615-42.152-5.231-72.26-45.715-77.913-85.682,53.476.069,97.121,35.963,105.951,88.806Z" fill="#30cfcf" stroke="#000" stroke-miterlimit="10"/>
    <path d="M254.976,838.184c2.438,2.417-.237,2.742-2.348,3.055-11.268,1.669-22.452,1.984-33.416,5.562-5.276,1.722-27.047,11.429-21.218,19.522,3.822,5.306,39.945-5.662,48.435-6.327,9.535-.747,21.137-.535,30.353,1.559l-18.196,9.04c-14.788,9.768-28.167,20.469-46.644,21.912-25.261,1.973-45.644-18.345-70.714-18.513-3.443-3.286,10.747-16.504,13.298-18.645,19.555-16.416,46.209-24.997,71.692-23.483,4.49.267,26.494,4.074,28.758,6.32Z" fill="#30cfcf" stroke="#000" stroke-miterlimit="10"/>
    <circle cx="97.734" cy="467.246" r="34.509" fill="#c1272d"/>
    <path d="M88.065,457.825c11.05-10.11,29.709,3.478,20.417,16.516-10.189,14.295-33.573-4.478-20.417-16.516Z" fill="#f9b233"/>
    <path d="M895.13,432.283c19.059,0,34.509,15.45,34.509,34.509s-15.45,34.509-34.509,34.509-34.509-15.45-34.509-34.509,15.45-34.509,34.509-34.509" fill="#c1272d"/>
    <path d="M885.46,457.37c11.05-10.11,29.709,3.478,20.417,16.516-10.189,14.295-33.573-4.478-20.417-16.516Z" fill="#f9b233"/>
    <path d="M510.851,583.098c35.551-39.865,98.686-109.035,156.911-67.693,76.692,54.454-10.964,156.087-53.433,201.539-36.71,39.289-77.097,76.002-119.228,109.292-15.239-12.49-31.276-24.548-45.998-37.636-47.555-42.278-134.562-126.825-152.237-187.438-8.881-30.456-4.354-61.421,21.357-82.16,53.319-43.01,109.696,6.271,145.726,45.962,4.37,4.814,25.304,32.589,27.229,33.57,6.077,3.095,15.169-10.384,19.673-15.434Z" fill="none" stroke="#000" stroke-miterlimit="10"/>
    <path d="M629.68,730.11c-29.222,31.366-63.379,63.844-95.931,91.824-5.775,4.964-33.151,28.691-38.191,28.707-1.244.004-2.39-.45-3.455-1.053-43.374-35.237-86.797-72.619-125.137-113.333-51.191-54.361-144.829-162.131-64.576-231.379,65.362-56.398,130.423-3.818,176.844,45.878,5.205,5.572,9.73,14.18,16.112,17.851,1.798-.312,20.797-23.751,24.296-27.221,41.65-41.297,99.418-82.222,157.905-45.594,22.113,13.849,38.816,43.277,41.41,69.218,5.891,58.899-51.62,124.681-89.276,165.101Z" fill="none" stroke="#000" stroke-miterlimit="10"/>
  </g>
</svg>