<?xml version="1.0" encoding="UTF-8"?>
<svg id="Capa_1" data-name="Capa 1" xmlns="http://www.w3.org/2000/svg" viewBox="0 0 765.509 341.944">
  <g>
    <path d="M469.215,185.947c-4.149-.415-8.216-1.493-12.366-1.908-4.813,2.24-10.789,2.987-15.686,2.24-4.066-2.24-.332-5.229,2.241-5.561,2.987-.415,6.723-.747,10.457-.415,1.909-1.825,2.656-5.229,2.987-10.042,1.162-5.976,1.494-13.445,1.909-21.329-8.631,3.735-18.341,3.403-28.052,1.909-71.705,89.217-156.44,174.783-274.456,188.974-41.082,4.813-87.06,2.988-122.497-21.661-40.334-26.558-46.725-79.175-7.138-109.799,1.162-1.162,2.241.747,1.494,1.494-51.124,45.895-4.067,100.836,47.472,117.269,78.428,27.636,166.151-5.229,230.387-53.447,45.978-35.106,84.072-78.429,119.924-123.245-6.391-1.079-12.365-2.241-18.341-2.573-21.246-2.988-33.944.747-49.297,15.271-7.47,1.493-2.988-7.47.747-9.711,13.445-11.204,32.865-11.204,48.966-8.963,6.307.747,13.444,1.909,20.167,2.987,14.191-17.511,27.969-35.438,42.16-53.364,2.655-3.735,5.976-7.138,10.125-9.71,1.079-.415,2.24.747,1.494,1.494-6.391,13.445-6.723,27.221-8.632,41.828-2.572,17.511,0,38.841-12.282,53.032,13.776.747,27.636,1.494,33.196-13.112,0-1.079,1.909-1.079,1.909,0,1.079,13.859-15.686,19.835-26.89,18.341ZM432.947,148.186c9.378,1.162,18.342.747,26.143-3.32.415-11.951,1.162-25.063,4.481-35.853-10.042,12.698-20.167,26.143-30.624,39.172Z"/>
    <path d="M519.267,126.94c.083,1.245-.083,2.573-.249,3.901l2.157-2.822c12.449-15.603,21.827-6.308,21.246-1.079-.746,8.963-10.457,8.963-11.203,4.482-1.079-4.482-6.225-7.387-17.927,14.523-1.743,3.237-3.07,6.225-3.734,8.216-2.241,6.723,0,9.378,4.066,6.723l1.494,1.494c-3.735,4.481-13.03,7.137-15.686,1.161-3.735-7.884,7.884-26.558,9.378-32.865,1.079-4.482-1.162-4.15-4.896-.747l-1.079-1.909c7.801-7.801,16.018-8.548,16.433-1.079Z"/>
    <path d="M552.134,100.382l-1.079-1.826c5.976-6.391,17.18-7.137,16.765,1.826-.166,4.399-1.577,9.212-3.734,14.607h11.95l-1.078,3.734h-12.366c-2.822,6.557-6.391,13.777-9.71,21.661-4.813,11.536-5.976,15.271-5.229,17.926.747,2.241,2.987,3.735,11.619-3.402l1.493,1.909c-8.631,11.205-19.088,14.192-23.154,6.308-1.494-3.735-.415-9.711,1.825-15.271,2.656-7.552,7.968-19.254,12.117-29.13h-9.129l1.162-3.734h9.461c2.074-5.062,3.568-9.378,3.983-11.951.332-3.734-1.909-4.481-4.896-2.656Z"/>
    <path d="M572.386,167.275c-9.71-4.149-10.125-16.433-5.229-26.89,5.229-10.872,14.938-16.433,20.914-18.341,12.283-4.066,21.246,3.735,13.777,14.192-5.395,7.552-17.844,12.117-26.392,14.274.747,4.565,2.987,8.299,6.224,9.627,5.976,2.241,14.192-1.079,19.089-6.723l1.826,2.241c-2.988,5.229-19.421,16.101-30.21,11.62ZM593.632,133.247c4.149-6.723,1.162-10.789-4.481-8.216-3.319,1.494-9.71,6.391-12.698,14.938-.829,2.407-1.244,4.896-1.244,7.304,7.884-2.988,14.44-7.221,18.424-14.026Z"/>
    <path d="M629.571,165.947c-6.225,4.647-17.927,4.315-22.657.332-5.146-4.315-5.644-10.956-3.568-15.271,2.24-5.062,8.963-4.481,9.876-.747,1.079,4.316-1.66,6.557-1.826,9.461-.664,7.138,9.295,8.632,14.191,1.909,3.237-4.15,1.494-11.537-4.066-16.433-10.208-9.378-5.478-23.321,6.225-25.977,11.453-2.407,16.018,3.984,14.606,10.125-2.074,7.055-12.448,5.976-9.793-1.66,2.656-6.723-8.88-6.971-9.129.747-.166,4.647,2.655,8.216,7.22,11.702,8.549,6.557,8.051,19.088-1.078,25.811Z"/>
    <path d="M670.906,163.539c-2.988-7.884,1.825-19.835,8.548-27.636,7.138-8.216,14.606-12.698,19.835-14.192,5.561-1.494,10.042-.415,10.789,2.241,7.138-16.847,10.706-25.977,11.287-29.96.498-3.735-1.743-4.482-4.73-2.656l-1.079-1.826c5.976-6.39,16.433-7.469,16.931,1.494.581,11.453-9.71,24.731-16.765,46.393-2.655,7.469-4.481,14.192-3.734,19.42.332,3.735,4.066,4.814,8.963-2.241l1.494,1.826c-4.896,11.205-14.606,12.366-18.342,7.884-3.319-3.734-2.572-10.872-1.493-17.926-.664.83-1.245,1.743-1.909,2.656-3.651,4.813-7.801,10.125-11.868,14.523-7.469,8.217-15.686,5.976-17.926,0ZM707.506,128.765c1.079-7.469-11.619-5.56-23.155,15.686-7.884,14.191-1.494,17.595,3.319,13.445,3.735-2.573,10.126-11.204,14.192-16.765,1.494-2.241,4.896-7.137,5.644-12.366Z"/>
    <path d="M733.32,167.275c-9.71-4.149-10.125-16.433-5.229-26.89,5.229-10.872,14.938-16.433,20.914-18.341,12.283-4.066,21.246,3.735,13.777,14.192-5.395,7.552-17.844,12.117-26.392,14.274.747,4.565,2.987,8.299,6.224,9.627,5.976,2.241,14.192-1.079,19.089-6.723l1.826,2.241c-2.988,5.229-19.421,16.101-30.21,11.62ZM754.566,133.247c4.149-6.723,1.162-10.789-4.481-8.216-3.319,1.494-9.71,6.391-12.698,14.938-.829,2.407-1.244,4.896-1.244,7.304,7.884-2.988,14.44-7.221,18.424-14.026Z"/>
    <path d="M460.252,187.699c13.444-4.481,31.288-4.398,38.923,9.295,13.279,23.902-1.328,62.411-25.894,78.429-9.959,6.473-21.91,11.121-32.45,10.125-34.856-3.071-34.524-61.083-.083-87.226,5.727-4.232,12.864-9.046,19.504-10.623ZM469.547,273.597c9.544-6.142,16.267-16.599,19.42-26.558,6.142-19.171,9.71-53.032-16.432-57.099-2.988-.415-5.561,0-8.217.332-7.47,1.908-13.693,6.39-18.673,11.618-17.844,18.508-26.973,67.225.414,75.274,9.213,2.739,17.346.415,23.487-3.568Z"/>
    <path d="M509.558,263.472c-3.403-8.217,1.825-20.499,9.295-27.969,7.885-8.216,15.686-12.366,22.823-14.191,11.204-2.988,16.765,2.987,14.938,10.789-1.909,8.631-7.885,17.926-7.885,24.316,0,3.735,3.735,4.813,11.951-2.24l1.494,1.825c-8.217,11.204-18.259,13.86-22.408,7.47-1.826-2.988-1.826-8.548,1.162-16.765l-1.992,2.656c-3.485,4.647-6.971,9.378-11.121,13.776-7.469,8.216-16.018,5.976-18.258.332ZM546.489,228.366c1.162-6.723-12.698-5.229-23.902,14.938-7.801,14.191-.747,18.341,4.15,14.191,3.734-2.572,10.042-11.204,14.191-16.765,1.079-2.24,5.229-7.137,5.561-12.365Z"/>
    <path d="M589.068,226.54c1.328,3.9,1.909,9.212,2.49,14.357,4.398-3.236,9.212-8.299,9.461-11.37.415-2.987-3.319-2.987-4.813-1.493l-1.494-1.909c9.71-8.217,18.674-5.976,16.765,1.494-1.743,6.971-11.619,12.614-19.42,17.511.664,5.146,1.577,9.628,3.402,11.619,3.32,3.734,7.47,2.988,12.698-1.494l1.493,1.909c-6.39,9.295-16.847,12.283-22.407,7.47-3.403-3.071-4.73-10.623-5.478-17.927-4.647,3.153-9.959,8.631-10.208,11.951-.415,2.987,3.319,2.987,4.813,1.494l1.493,1.825c-9.71,8.217-18.673,5.976-16.764-1.494,1.825-7.22,12.365-13.029,20.25-18.092-.415-5.395-.747-10.125-1.577-12.117-1.494-3.734-5.976-2.987-8.631-.747l-1.079-1.908c7.801-7.802,16.433-8.549,19.005-1.079Z"/>
    <path d="M612.642,263.472c-3.403-8.217,1.825-20.499,9.295-27.969,7.885-8.216,15.686-12.366,22.823-14.191,11.204-2.988,16.765,2.987,14.938,10.789-1.909,8.631-7.885,17.926-7.885,24.316,0,3.735,3.735,4.813,11.951-2.24l1.494,1.825c-8.217,11.204-18.259,13.86-22.408,7.47-1.826-2.988-1.826-8.548,1.162-16.765l-1.992,2.656c-3.485,4.647-6.971,9.378-11.121,13.776-7.469,8.216-16.018,5.976-18.258.332ZM649.573,228.366c1.162-6.723-12.698-5.229-23.902,14.938-7.801,14.191-.747,18.341,4.15,14.191,3.734-2.572,10.042-11.204,14.191-16.765,1.079-2.24,5.229-7.137,5.561-12.365Z"/>
    <path d="M676.882,266.874c-9.71-4.149-10.125-16.433-5.229-26.89,5.229-10.872,14.938-16.433,21.993-18.673,11.204-3.403,18.674,3.734,16.101,10.789-2.241,5.976-12.698,4.896-10.125-3.734,2.241-7.47-12.283-6.308-18.674,11.203-2.987,8.217-.331,17.927,5.229,20.168,5.976,2.24,14.192-1.079,19.089-6.723l1.826,2.24c-2.988,5.229-19.421,16.101-30.21,11.619Z"/>
    <path d="M712.406,263.472c-3.403-8.217,1.825-20.499,9.295-27.969,7.885-8.216,15.686-12.366,22.823-14.191,11.204-2.988,16.765,2.987,14.938,10.789-1.909,8.631-7.885,17.926-7.885,24.316,0,3.735,3.735,4.813,11.951-2.24l1.494,1.825c-8.217,11.204-18.259,13.86-22.408,7.47-1.826-2.988-1.826-8.548,1.162-16.765l-1.992,2.656c-3.485,4.647-6.971,9.378-11.121,13.776-7.469,8.216-16.018,5.976-18.258.332ZM749.338,228.366c1.162-6.723-12.698-5.229-23.902,14.938-7.801,14.191-.747,18.341,4.15,14.191,3.734-2.572,10.042-11.204,14.191-16.765,1.079-2.24,5.229-7.137,5.561-12.365Z"/>
  </g>
  <g>
    <path d="M253.97,185.144c-.083-.006-.575-.671-.796-.162,15.461,23.387-9.861,51.187-34.807,38.788,6.55,19.62-7.745,38.253-28.54,36.347-4.35-.399-10.076-2.968-13.446-5.712-.81-.66-4.264-4.59-4.787-4.462-18.773,24.485-56.792,4.406-46.79-24.895-22.38,8.521-44.085-12.879-34.96-35.43.58-1.433,1.524-2.713,2.068-4.154-11.451.722-22.807-7.609-26.092-18.447-3.514-11.595.613-23.01,10.121-30.234-31.484-17.504-8.673-63.062,24.273-48.042,2.965-28.879,42.295-33.168,52.211-6.07,9.865-11.609,27.961-12.465,38.958-1.915,10.338-23.59,44.717-21.352,50.934,3.837,9.377-4.283,20.02-3.398,28.244,2.886,14.223,10.867,13.818,32.293-.493,42.893-1.337.99-2.934,1.623-4.123,2.737,9.627,2.668,16.892,11.544,18.434,21.317,1.912,12.121-4.999,24.22-16.301,28.859-1.337.549-5.177,1.858-6.444,1.858-2.462,0-5.255.182-7.664,0h0ZM239.12,86.507c-3.34-16.604-22.49-24.238-36.366-14.168-3.014,2.187-5.853,5.512-7.334,8.949-.856,1.987-1.694,3.654.692,4.851,13.512-6.581,29.584-6.246,43.008.368ZM149.391,85.868c-6.092-24.706-41.408-23.268-45.341,1.916,2.128-.996,4.192-2.168,6.39-3.026,10.028-3.912,21.165-4.489,31.533-1.526,2.536.725,4.886,1.924,7.418,2.636h0ZM172.388,107.895c.482.113.511-.069.776-.336.939-.948,1.998-3.209,2.919-4.423,4.657-6.14,9.976-10.975,16.392-15.23-7.221-12.128-24.098-14.623-34.784-5.39-1.114.962-5.021,4.681-3.826,6.066,7.535,4.807,14.234,11.451,18.523,19.314h0ZM264.03,129.282c4.051-1.265,7.822-5.008,10.032-8.643,12.34-20.301-10.647-43.781-31.102-32.055,1.903,1.734,4.154,3.058,6.065,4.784,9.832,8.88,15.531,22.642,15.005,35.915h0ZM172.388,111.725c-12.053-22.002-39.867-31.564-62.486-19.207-23.755,12.978-26.389,42.398-18.225,65.89,8.665,24.934,41.32,48.084,60.913,65.515,6.811,6.059,13.312,12.5,20.272,18.37,8.034-7.198,15.986-14.692,24.104-21.881,19.887-17.61,50.256-38.771,57.886-65.03,6.52-22.437,4.05-49.032-17.673-61.985-22.894-13.653-50.999-4.252-64.016,17.992l-.776.336h0ZM97.98,91.621c-16.663-7.539-34.616,4.85-33.221,23.151.52,6.811,4.974,13.801,10.773,17.321.77.467,5.521,3.151,5.859,1.766-.757-13.234,2.526-26.423,11.317-36.501,1.354-1.552,3.903-3.403,4.959-4.938.185-.269.444-.317.313-.798ZM264.045,136.315c-.298.207-.559,5.479-.7,6.488-1.879,13.403-6.733,25.821-15.595,36.116,11.332,6.364,25.99.707,31.242-10.899,5.819-12.857-1.241-28.337-14.946-31.706h0ZM81.694,137.901c-16.346,7.333-18.059,30.351-2.971,40.16,4.087,2.657,11.718,4.986,16.476,3.504.573-.179,2.603-2.257,2.43-2.901-.068-.253-2.638-3.282-3.101-3.953-7.716-11.174-11.9-23.172-12.834-36.81h0ZM100.382,181.969c-18.064,14.371-6.682,43.073,16.595,41.156,2.984-.246,8.4-2.042,10.684-4.004,1.913-1.642,3.318-4.649,5.76-6.046-11.15-10.216-23.14-19.611-33.039-31.106h0ZM245.392,181.975c-10.126,10.987-21.392,20.818-32.8,30.443l-.296.652c5.994,9.133,17.833,12.307,27.898,8.099,15.999-6.689,19.081-28.707,5.198-39.194h0ZM136.464,215.546c-8.922,6.195-11.947,18.218-7.463,28.127,6.258,13.829,24.138,17.878,35.868,8.176.994-.822,5.372-5.253,4.816-6.366l-33.221-29.937h0ZM208.351,216.131l-33.432,30.128-.312.653c9.465,13.448,29.873,12.672,38.464-1.462,5.766-9.486,3.955-22.315-4.721-29.319h0Z"/>
    <g>
      <polygon points="191.542 69.912 183.586 68.609 183.556 67.856 199.522 2.559 191.542 69.912"/>
      <path d="M150.356,69.912l-7.986-66.715,15.909,64.709c.096.409-.167.527-.492.661-1.828.751-5.41.574-7.431,1.345h0Z"/>
      <polygon points="174.938 67.995 166.636 67.995 170.946 0 174.938 67.995"/>
    </g>
  </g>
</svg>