<?xml version="1.0" encoding="UTF-8"?>
<svg id="Capa_1" xmlns="http://www.w3.org/2000/svg" version="1.1" viewBox="0 0 791.71 923.13">
  <!-- Generator: Adobe Illustrator 29.4.0, SVG Export Plug-In . SVG Version: 2.1.0 Build 152)  -->
  <defs>
    <style>
      .st0 {
        fill: #4e211a;
      }
    </style>
  </defs>
  <g id="Capa_11" data-name="Capa_1">
    <path class="st0" d="M683,655.03c-.29-.02-2.03-2.37-2.82-.57,54.7,82.74-34.89,181.1-123.14,137.23,23.17,69.41-27.4,135.34-100.97,128.6-15.39-1.41-35.65-10.5-47.57-20.21-2.87-2.33-15.09-16.24-16.94-15.79-66.42,86.63-200.93,15.59-165.54-88.08-79.18,30.15-155.97-45.56-123.69-125.35,2.05-5.07,5.39-9.6,7.32-14.7-40.51,2.55-80.69-26.92-92.31-65.26-12.43-41.02,2.17-81.41,35.81-106.97-111.39-61.93-30.69-223.11,85.88-169.97,10.49-102.17,149.64-117.35,184.72-21.48,34.9-41.07,98.93-44.1,137.83-6.77,36.58-83.46,158.21-75.54,180.2,13.58,33.17-15.15,70.83-12.02,99.92,10.21,50.32,38.45,48.89,114.25-1.74,151.75-4.73,3.5-10.38,5.74-14.59,9.68,34.06,9.44,59.76,40.84,65.22,75.42,6.76,42.89-17.69,85.69-57.67,102.1-4.73,1.94-18.32,6.57-22.8,6.57-8.71,0-18.59.64-27.11,0h-.01s0,.01,0,.01ZM630.46,306.06c-11.82-58.74-79.57-85.75-128.66-50.13-10.66,7.74-20.71,19.5-25.95,31.66-3.03,7.03-5.99,12.93,2.45,17.16,47.8-23.28,104.67-22.1,152.16,1.3h0ZM313.01,303.8c-21.55-87.41-146.5-82.32-160.41,6.78,7.53-3.52,14.83-7.67,22.61-10.7,35.48-13.84,74.88-15.88,111.56-5.4,8.97,2.57,17.29,6.81,26.25,9.33h-.01s0,0,0,0ZM394.37,381.73c1.71.4,1.81-.24,2.75-1.19,3.32-3.36,7.07-11.35,10.33-15.65,16.48-21.72,35.29-38.83,57.99-53.88-25.55-42.91-85.26-51.74-123.07-19.07-3.94,3.4-17.76,16.56-13.54,21.46,26.66,17.01,50.36,40.51,65.53,68.33h.01ZM718.59,457.39c14.33-4.48,27.67-17.72,35.49-30.58,43.66-71.82-37.67-154.9-110.04-113.41,6.73,6.14,14.7,10.82,21.46,16.92,34.79,31.42,54.95,80.11,53.09,127.06h0s0,0,0,0ZM394.37,395.28c-42.64-77.84-141.05-111.67-221.07-67.95-84.04,45.92-93.36,150-64.48,233.12,30.66,88.22,146.19,170.12,215.51,231.79,24.1,21.44,47.1,44.22,71.72,64.99,28.42-25.47,56.56-51.98,85.28-77.41,70.36-62.3,177.8-137.17,204.8-230.07,23.07-79.38,14.33-173.47-62.53-219.3-81-48.3-180.43-15.04-226.49,63.65l-2.75,1.19h.01s0,0,0,0ZM131.12,324.15c-58.95-26.67-122.47,17.16-117.53,81.91,1.84,24.1,17.6,48.83,38.11,61.28,2.72,1.65,19.53,11.15,20.73,6.25-2.68-46.82,8.94-93.48,40.04-129.14,4.79-5.49,13.81-12.04,17.54-17.47.65-.95,1.57-1.12,1.11-2.82h0ZM718.65,482.28c-1.06.73-1.98,19.38-2.48,22.95-6.65,47.42-23.82,91.35-55.18,127.78,40.09,22.52,91.95,2.5,110.53-38.56,20.59-45.49-4.39-100.25-52.88-112.17h.01,0ZM73.5,487.89c-57.83,25.94-63.89,107.38-10.51,142.08,14.46,9.4,41.46,17.64,58.29,12.4,2.03-.63,9.21-7.98,8.6-10.27-.24-.9-9.33-11.61-10.97-13.98-27.3-39.53-42.1-81.98-45.41-130.23h0ZM139.61,643.8c-63.91,50.85-23.64,152.39,58.71,145.61,10.56-.87,29.72-7.23,37.8-14.16,6.77-5.81,11.74-16.45,20.38-21.39-39.45-36.14-81.87-69.38-116.89-110.05h0s0-.01,0-.01ZM652.65,643.82c-35.83,38.87-75.68,73.65-116.04,107.71l-1.05,2.31c21.21,32.31,63.09,43.54,98.7,28.66,56.6-23.66,67.51-101.57,18.39-138.67h0s0-.01,0-.01ZM267.27,762.59c-31.57,21.92-42.27,64.46-26.4,99.51,22.14,48.93,85.4,63.25,126.9,28.93,3.52-2.91,19.01-18.59,17.04-22.52l-117.54-105.92h0ZM521.6,764.66l-118.28,106.59-1.1,2.31c33.49,47.58,105.69,44.83,136.08-5.17,20.4-33.56,13.99-78.95-16.7-103.73h0Z"/>
    <g>
      <polygon class="st0" points="462.14 247.35 433.99 242.74 433.88 240.07 490.37 9.05 462.14 247.35"/>
      <path class="st0" d="M316.42,247.34l-28.25-236.03,56.29,228.94c.34,1.45-.59,1.87-1.74,2.34-6.47,2.66-19.14,2.03-26.29,4.76h-.01Z"/>
      <polygon class="st0" points="403.39 240.56 374.02 240.56 389.27 0 403.39 240.56"/>
    </g>
  </g>
</svg>